{
  "source": "C:\\Users\\Peter\\Desktop\\stuff\\MIUN\\quantitative_research\\video_compression\\videos\\BVI-HD\\CarpetCircleFast_1920x1080_60fps.mp4",
  "output": "C:\\Users\\Peter\\Desktop\\stuff\\MIUN\\quantitative_research\\video_compression\\compressed_videos\\BVI-HD\\av1\\12\\CarpetCircleFast_1920x1080_60fps_av1.mkv",
  "codec": "av1",
  "ok": "Input #0, mov,mp4,m4a,3gp,3g2,mj2, from 'C:\\Users\\Peter\\Desktop\\stuff\\MIUN\\quantitative_research\\video_compression\\videos\\BVI-HD\\CarpetCircleFast_1920x1080_60fps.mp4':\n  Metadata:\n    major_brand     : isom\n    minor_version   : 512\n    compatible_brands: isomiso2avc1mp41\n    encoder         : Lavf54.28.101\n  Duration: 00:00:05.00, start: 0.000000, bitrate: 324759 kb/s\n  Stream #0:0[0x1](und): Video: h264 (High 4:4:4 Predictive) (avc1 / 0x31637661), yuv420p(progressive), 1920x1080, 324754 kb/s, 60 fps, 60 tbr, 60 tbn (default)\n    Metadata:\n      handler_name    : VideoHandler\n      vendor_id       : [0][0][0][0]\n[out#0/matroska @ 0000016d09fc1180] Codec AVOption b:a (set bitrate (in bits/s)) has not been used for any stream. The most likely reason is either wrong type (e.g. a video option with no video streams) or that it is a private option of some decoder which was not actually used for any stream.\nStream mapping:\n  Stream #0:0 -> #0:0 (h264 (native) -> av1 (libsvtav1))\nPress [q] to stop, [?] for help\nSvt[info]: -------------------------------------------\nSvt[info]: SVT [version]:\tSVT-AV1 Encoder Lib v3.1.0-19-g6ecfe8ec\nSvt[info]: SVT [build]  :\tGCC 15.2.0\t 64 bit\nSvt[info]: LIB Build date: Aug 17 2025 11:37:13\nSvt[info]: -------------------------------------------\nSvt[info]: Level of Parallelism: 5\nSvt[info]: Number of PPCS 93\nSvt[info]: [asm level on system : up to avx2]\nSvt[info]: [asm level selected : up to avx2]\nSvt[info]: -------------------------------------------\nSvt[info]: SVT [config]: main profile\ttier (auto)\tlevel (auto)\nSvt[info]: SVT [config]: width / height / fps numerator / fps denominator \t\t: 1920 / 1080 / 60 / 1\nSvt[info]: SVT [config]: bit-depth / color format \t\t\t\t\t: 8 / YUV420\nSvt[info]: SVT [config]: preset / tune / pred struct \t\t\t\t\t: 4 / PSNR / random access\nSvt[info]: SVT [config]: gop size / mini-gop size / key-frame type \t\t\t: 321 / 16 / key frame\nSvt[info]: SVT [config]: BRC mode / target bitrate (kbps)\t\t\t\t: VBR / 12000 \nSvt[info]: SVT [config]: AQ mode / Variance Boost \t\t\t\t\t: 2 / 0\nSvt[info]: SVT [config]: sharpness / luminance-based QP bias \t\t\t\t: 0 / 0\nSvt[info]: SVT [config]: QP scale compress strength \t\t\t\t\t: 0\nSvt[info]: -------------------------------------------\nOutput #0, matroska, to 'C:\\Users\\Peter\\Desktop\\stuff\\MIUN\\quantitative_research\\video_compression\\compressed_videos\\BVI-HD\\av1\\12\\CarpetCircleFast_1920x1080_60fps_av1.mkv':\n  Metadata:\n    major_brand     : isom\n    minor_version   : 512\n    compatible_brands: isomiso2avc1mp41\n    encoder         : Lavf62.3.100\n  Stream #0:0(und): Video: av1 (AV01 / 0x31305641), yuv420p(tv, progressive), 1920x1080, q=2-31, 12000 kb/s, 60 fps, 1k tbn (default)\n    Metadata:\n      encoder         : Lavc62.11.100 libsvtav1\n      handler_name    : VideoHandler\n      vendor_id       : [0][0][0][0]\n    Side data:\n      cpb: bitrate max/min/avg: 0/0/12000000 buffer size: 12000000 vbv_delay: N/A\nframe=    0 fps=0.0 q=0.0 size=       0KiB time=N/A bitrate=N/A speed=N/A elapsed=0:00:02.08    \nframe=    0 fps=0.0 q=0.0 size=       0KiB time=N/A bitrate=N/A speed=N/A elapsed=0:00:02.60    \nframe=    0 fps=0.0 q=0.0 size=       0KiB time=N/A bitrate=N/A speed=N/A elapsed=0:00:03.11    \nframe=    0 fps=0.0 q=0.0 size=       0KiB time=N/A bitrate=N/A speed=N/A elapsed=0:00:03.63    \nframe=    0 fps=0.0 q=0.0 size=       0KiB time=N/A bitrate=N/A speed=N/A elapsed=0:00:04.22    \nframe=    0 fps=0.0 q=0.0 size=       0KiB time=N/A bitrate=N/A speed=N/A elapsed=0:00:04.75    \nframe=    0 fps=0.0 q=0.0 size=       0KiB time=N/A bitrate=N/A speed=N/A elapsed=0:00:05.28    \nframe=    0 fps=0.0 q=0.0 size=       0KiB time=N/A bitrate=N/A speed=N/A elapsed=0:00:05.93    \nframe=    0 fps=0.0 q=0.0 size=       0KiB time=N/A bitrate=N/A speed=N/A elapsed=0:00:06.56    \nframe=    0 fps=0.0 q=0.0 size=       0KiB time=N/A bitrate=N/A speed=N/A elapsed=0:00:07.15    \nframe=    0 fps=0.0 q=0.0 size=       0KiB time=N/A bitrate=N/A speed=N/A elapsed=0:00:07.68    \nframe=    0 fps=0.0 q=0.0 size=       0KiB time=N/A bitrate=N/A speed=N/A elapsed=0:00:08.24    \nframe=    1 fps=0.1 q=7.0 size=       1KiB time=00:00:00.00 bitrate=N/A speed=   0x elapsed=0:00:08.77    \nframe=    1 fps=0.1 q=7.0 size=       1KiB time=00:00:00.00 bitrate=N/A speed=   0x elapsed=0:00:09.32    \nframe=    1 fps=0.1 q=7.0 size=       1KiB time=00:00:00.00 bitrate=N/A speed=   0x elapsed=0:00:09.84    \nframe=    4 fps=0.4 q=18.0 size=       1KiB time=00:00:00.05 bitrate= 113.9kbits/s speed=0.00482x elapsed=0:00:10.36    \nframe=    7 fps=0.6 q=16.0 size=       1KiB time=00:00:00.10 bitrate=  57.0kbits/s speed=0.00917x elapsed=0:00:10.90    \nframe=    8 fps=0.7 q=16.0 size=       1KiB time=00:00:00.11 bitrate=  48.8kbits/s speed=0.0102x elapsed=0:00:11.43    \nframe=    9 fps=0.8 q=14.0 size=       1KiB time=00:00:00.11 bitrate=  48.8kbits/s speed=0.00974x elapsed=0:00:11.98    \nframe=   11 fps=0.9 q=14.0 size=       1KiB time=00:00:00.16 bitrate=  34.2kbits/s speed=0.0131x elapsed=0:00:12.67    \nframe=   13 fps=1.0 q=14.0 size=       1KiB time=00:00:00.20 bitrate=  28.5kbits/s speed=0.0151x elapsed=0:00:13.21    \nframe=   17 fps=1.2 q=8.0 size=       1KiB time=00:00:00.26 bitrate=  21.4kbits/s speed=0.0194x elapsed=0:00:13.72    \nframe=   19 fps=1.3 q=17.0 size=       1KiB time=00:00:00.30 bitrate=  19.0kbits/s speed=0.0211x elapsed=0:00:14.24    \nframe=   22 fps=1.5 q=12.0 size=       1KiB time=00:00:00.35 bitrate=  16.3kbits/s speed=0.0237x elapsed=0:00:14.76    \nframe=   23 fps=1.5 q=13.0 size=       1KiB time=00:00:00.36 bitrate=  15.5kbits/s speed=0.024x elapsed=0:00:15.30    \nframe=   26 fps=1.6 q=12.0 size=       1KiB time=00:00:00.41 bitrate=  13.7kbits/s speed=0.026x elapsed=0:00:16.01    \nframe=   29 fps=1.8 q=14.0 size=       1KiB time=00:00:00.46 bitrate=  12.2kbits/s speed=0.0282x elapsed=0:00:16.53    \nframe=   33 fps=1.9 q=6.0 size=       1KiB time=00:00:00.53 bitrate=  10.7kbits/s speed=0.0313x elapsed=0:00:17.05    \nframe=   35 fps=2.0 q=14.0 size=       1KiB time=00:00:00.56 bitrate=  10.1kbits/s speed=0.0322x elapsed=0:00:17.57    \nframe=   38 fps=2.1 q=13.0 size=       1KiB time=00:00:00.61 bitrate=   9.2kbits/s speed=0.034x elapsed=0:00:18.13    \nframe=   41 fps=2.2 q=13.0 size=       1KiB time=00:00:00.66 bitrate=   8.5kbits/s speed=0.0357x elapsed=0:00:18.68    \nframe=   43 fps=2.2 q=16.0 size=       1KiB time=00:00:00.68 bitrate=   8.3kbits/s speed=0.0356x elapsed=0:00:19.21    \nframe=   47 fps=2.4 q=15.0 size=       1KiB time=00:00:00.76 bitrate=   7.4kbits/s speed=0.0387x elapsed=0:00:19.80    \nframe=   50 fps=2.5 q=15.0 size=       1KiB time=00:00:00.81 bitrate=   7.0kbits/s speed=0.0401x elapsed=0:00:20.35    \nframe=   52 fps=2.5 q=15.0 size=       1KiB time=00:00:00.85 bitrate=   6.7kbits/s speed=0.0407x elapsed=0:00:20.88    \nframe=   54 fps=2.5 q=16.0 size=       1KiB time=00:00:00.88 bitrate=   6.4kbits/s speed=0.0412x elapsed=0:00:21.41    \nframe=   57 fps=2.6 q=14.0 size=       1KiB time=00:00:00.93 bitrate=   6.1kbits/s speed=0.0424x elapsed=0:00:22.01    \nframe=   60 fps=2.7 q=15.0 size=       1KiB time=00:00:00.95 bitrate=   6.0kbits/s speed=0.042x elapsed=0:00:22.62    \nframe=   63 fps=2.7 q=17.0 size=       1KiB time=00:00:01.03 bitrate=   5.5kbits/s speed=0.0445x elapsed=0:00:23.23    \nframe=   66 fps=2.8 q=19.0 size=       1KiB time=00:00:01.08 bitrate=   5.3kbits/s speed=0.0456x elapsed=0:00:23.75    \nframe=   68 fps=2.8 q=18.0 size=       1KiB time=00:00:01.11 bitrate=   5.1kbits/s speed=0.046x elapsed=0:00:24.27    \nframe=   71 fps=2.9 q=17.0 size=       1KiB time=00:00:01.15 bitrate=   5.0kbits/s speed=0.0463x elapsed=0:00:24.85    \nframe=   74 fps=2.9 q=19.0 size=       1KiB time=00:00:01.21 bitrate=   4.7kbits/s speed=0.0478x elapsed=0:00:25.43    \nframe=   79 fps=3.0 q=17.0 size=       1KiB time=00:00:01.30 bitrate=   4.4kbits/s speed=0.05x elapsed=0:00:25.98    \nframe=   82 fps=3.1 q=19.0 size=       1KiB time=00:00:01.35 bitrate=   4.2kbits/s speed=0.051x elapsed=0:00:26.49    \nframe=   85 fps=3.1 q=16.0 size=       1KiB time=00:00:01.40 bitrate=   4.1kbits/s speed=0.0518x elapsed=0:00:27.01    \nframe=   86 fps=3.1 q=19.0 size=       1KiB time=00:00:01.41 bitrate=   4.0kbits/s speed=0.0514x elapsed=0:00:27.54    \nframe=   90 fps=3.2 q=18.0 size=       1KiB time=00:00:01.48 bitrate=   3.8kbits/s speed=0.0528x elapsed=0:00:28.08    \nframe=   93 fps=3.2 q=13.0 size=       1KiB time=00:00:01.53 bitrate=   3.7kbits/s speed=0.0534x elapsed=0:00:28.68    \nframe=   97 fps=3.3 q=4.0 size=       1KiB time=00:00:01.60 bitrate=   3.6kbits/s speed=0.0548x elapsed=0:00:29.21    \nframe=  100 fps=3.4 q=18.0 size=       1KiB time=00:00:01.65 bitrate=   3.5kbits/s speed=0.0555x elapsed=0:00:29.75    \nframe=  102 fps=3.4 q=18.0 size=       1KiB time=00:00:01.68 bitrate=   3.4kbits/s speed=0.0556x elapsed=0:00:30.27    \nframe=  103 fps=3.3 q=17.0 size=       1KiB time=00:00:01.70 bitrate=   3.4kbits/s speed=0.0552x elapsed=0:00:30.82    \nframe=  106 fps=3.4 q=18.0 size=       1KiB time=00:00:01.75 bitrate=   3.3kbits/s speed=0.0558x elapsed=0:00:31.38    \nframe=  109 fps=3.4 q=12.0 size=       1KiB time=00:00:01.80 bitrate=   3.2kbits/s speed=0.0564x elapsed=0:00:31.89    \nframe=  114 fps=3.5 q=19.0 size=       1KiB time=00:00:01.88 bitrate=   3.0kbits/s speed=0.0581x elapsed=0:00:32.41    \nframe=  117 fps=3.6 q=16.0 size=       1KiB time=00:00:01.93 bitrate=   2.9kbits/s speed=0.0587x elapsed=0:00:32.95    \nframe=  118 fps=3.5 q=17.0 size=       1KiB time=00:00:01.95 bitrate=   2.9kbits/s speed=0.0582x elapsed=0:00:33.49    \nframe=  122 fps=3.6 q=18.0 size=       1KiB time=00:00:02.01 bitrate=   2.8kbits/s speed=0.0593x elapsed=0:00:34.03    \nframe=  125 fps=3.6 q=13.0 size=       1KiB time=00:00:02.06 bitrate=   2.8kbits/s speed=0.0597x elapsed=0:00:34.60    \nframe=  130 fps=3.7 q=19.0 size=       1KiB time=00:00:02.15 bitrate=   2.6kbits/s speed=0.0612x elapsed=0:00:35.12    \nframe=  133 fps=3.7 q=16.0 size=       1KiB time=00:00:02.20 bitrate=   2.6kbits/s speed=0.0617x elapsed=0:00:35.63    \nframe=  134 fps=3.7 q=15.0 size=       1KiB time=00:00:02.21 bitrate=   2.6kbits/s speed=0.0613x elapsed=0:00:36.16    \nframe=  136 fps=3.7 q=16.0 size=       1KiB time=00:00:02.25 bitrate=   2.5kbits/s speed=0.0613x elapsed=0:00:36.69    \nframe=  139 fps=3.7 q=16.0 size=       1KiB time=00:00:02.30 bitrate=   2.5kbits/s speed=0.0618x elapsed=0:00:37.22    \nframe=  143 fps=3.8 q=17.0 size=       1KiB time=00:00:02.36 bitrate=   2.4kbits/s speed=0.0627x elapsed=0:00:37.76    \nframe=  148 fps=3.9 q=20.0 size=       1KiB time=00:00:02.45 bitrate=   2.3kbits/s speed=0.064x elapsed=0:00:38.27    \nframe=  150 fps=3.9 q=20.0 size=       1KiB time=00:00:02.48 bitrate=   2.3kbits/s speed=0.064x elapsed=0:00:38.80    \nframe=  153 fps=3.9 q=13.0 size=       1KiB time=00:00:02.53 bitrate=   2.2kbits/s speed=0.0643x elapsed=0:00:39.37    \nframe=  156 fps=3.9 q=18.0 size=       1KiB time=00:00:02.58 bitrate=   2.2kbits/s speed=0.0647x elapsed=0:00:39.95    \nframe=  162 fps=4.0 q=20.0 size=       1KiB time=00:00:02.68 bitrate=   2.1kbits/s speed=0.0663x elapsed=0:00:40.47    \nframe=  165 fps=4.0 q=17.0 size=       1KiB time=00:00:02.73 bitrate=   2.1kbits/s speed=0.0667x elapsed=0:00:40.99    \nframe=  167 fps=4.0 q=19.0 size=       1KiB time=00:00:02.76 bitrate=   2.1kbits/s speed=0.0667x elapsed=0:00:41.50    \nframe=  172 fps=4.1 q=19.0 size=       1KiB time=00:00:02.85 bitrate=   2.0kbits/s speed=0.0678x elapsed=0:00:42.03    \nframe=  177 fps=4.2 q=7.0 size=       1KiB time=00:00:02.93 bitrate=   1.9kbits/s speed=0.0689x elapsed=0:00:42.58    \nframe=  181 fps=4.2 q=17.0 size=       1KiB time=00:00:03.00 bitrate=   1.9kbits/s speed=0.0696x elapsed=0:00:43.12    \nframe=  183 fps=4.2 q=18.0 size=       1KiB time=00:00:03.03 bitrate=   1.9kbits/s speed=0.0695x elapsed=0:00:43.64    \nframe=  187 fps=4.2 q=17.0 size=       1KiB time=00:00:03.10 bitrate=   1.8kbits/s speed=0.0702x elapsed=0:00:44.18    \nframe=  193 fps=4.3 q=6.0 size=       1KiB time=00:00:03.20 bitrate=   1.8kbits/s speed=0.0715x elapsed=0:00:44.77    \nframe=  196 fps=4.3 q=12.0 size=       1KiB time=00:00:03.23 bitrate=   1.8kbits/s speed=0.0713x elapsed=0:00:45.33    \nframe=  197 fps=4.3 q=17.0 size=       1KiB time=00:00:03.26 bitrate=   1.7kbits/s speed=0.0711x elapsed=0:00:45.95    \nframe=  199 fps=4.3 q=12.0 size=       1KiB time=00:00:03.30 bitrate=   1.7kbits/s speed=0.071x elapsed=0:00:46.50    \nframe=  205 fps=4.4 q=13.0 size=       1KiB time=00:00:03.40 bitrate=   1.7kbits/s speed=0.0722x elapsed=0:00:47.07    \nframe=  209 fps=4.4 q=9.0 size=       1KiB time=00:00:03.46 bitrate=   1.6kbits/s speed=0.0728x elapsed=0:00:47.61    \nframe=  211 fps=4.4 q=18.0 size=       1KiB time=00:00:03.50 bitrate=   1.6kbits/s speed=0.0727x elapsed=0:00:48.13    \nframe=  217 fps=4.5 q=13.0 size=       1KiB time=00:00:03.60 bitrate=   1.6kbits/s speed=0.074x elapsed=0:00:48.66    \nframe=  217 fps=4.4 q=13.0 size=       1KiB time=00:00:03.60 bitrate=   1.6kbits/s speed=0.0731x elapsed=0:00:49.22    \nframe=  221 fps=4.4 q=13.0 size=       1KiB time=00:00:03.66 bitrate=   1.6kbits/s speed=0.0737x elapsed=0:00:49.74    \nframe=  225 fps=4.5 q=6.0 size=       1KiB time=00:00:03.73 bitrate=   1.5kbits/s speed=0.0742x elapsed=0:00:50.30    \nframe=  229 fps=4.5 q=16.0 size=    5120KiB time=00:00:03.80 bitrate=11037.6kbits/s speed=0.0748x elapsed=0:00:50.83    \nframe=  233 fps=4.5 q=13.0 size=    5120KiB time=00:00:03.86 bitrate=10847.3kbits/s speed=0.0753x elapsed=0:00:51.35    \nframe=  233 fps=4.5 q=13.0 size=    5120KiB time=00:00:03.86 bitrate=10847.3kbits/s speed=0.0745x elapsed=0:00:51.87    \nframe=  237 fps=4.5 q=13.0 size=    5120KiB time=00:00:03.93 bitrate=10663.5kbits/s speed=0.075x elapsed=0:00:52.43    \nframe=  243 fps=4.6 q=19.0 size=    5120KiB time=00:00:04.03 bitrate=10399.1kbits/s speed=0.0761x elapsed=0:00:52.96    \nframe=  249 fps=4.7 q=13.0 size=    5120KiB time=00:00:04.13 bitrate=10147.5kbits/s speed=0.0773x elapsed=0:00:53.48    \nframe=  249 fps=4.6 q=13.0 size=    5120KiB time=00:00:04.13 bitrate=10147.5kbits/s speed=0.0765x elapsed=0:00:54.01    \nframe=  253 fps=4.6 q=13.0 size=    5120KiB time=00:00:04.20 bitrate=9986.4kbits/s speed=0.077x elapsed=0:00:54.54    \nframe=  257 fps=4.7 q=7.0 size=    5120KiB time=00:00:04.26 bitrate=9830.4kbits/s speed=0.0775x elapsed=0:00:55.07    \nframe=  261 fps=4.7 q=16.0 size=    5120KiB time=00:00:04.33 bitrate=9679.2kbits/s speed=0.0779x elapsed=0:00:55.60    \nframe=  265 fps=4.7 q=13.0 size=    5120KiB time=00:00:04.40 bitrate=9532.5kbits/s speed=0.0784x elapsed=0:00:56.13    \nframe=  265 fps=4.7 q=13.0 size=    5120KiB time=00:00:04.40 bitrate=9532.5kbits/s speed=0.0776x elapsed=0:00:56.69    \nframe=  269 fps=4.7 q=16.0 size=    5120KiB time=00:00:04.46 bitrate=9390.2kbits/s speed=0.078x elapsed=0:00:57.25    \nframe=  275 fps=4.8 q=19.0 size=    5120KiB time=00:00:04.56 bitrate=9184.6kbits/s speed=0.079x elapsed=0:00:57.77    \nframe=  281 fps=4.8 q=16.0 size=    5120KiB time=00:00:04.66 bitrate=8987.8kbits/s speed=0.0801x elapsed=0:00:58.29    \nframe=  283 fps=4.8 q=18.0 size=    5120KiB time=00:00:04.70 bitrate=8924.1kbits/s speed=0.0799x elapsed=0:00:58.80    \nframe=  293 fps=4.9 q=16.0 size=    5120KiB time=00:00:04.86 bitrate=8618.4kbits/s speed=0.082x elapsed=0:00:59.31    \n[out#0/matroska @ 0000016d09fc1180] video:5988KiB audio:0KiB subtitle:0KiB other streams:0KiB global headers:0KiB muxing overhead: 0.035717%\nframe=  300 fps=5.0 q=20.0 Lsize=    5990KiB time=00:00:04.98 bitrate=9846.9kbits/s speed=0.0837x elapsed=0:00:59.52    \n",
  "seconds": 60.361690044403076,
  "probe_out": {}
}